<?xml version="1.0" encoding="utf-8"?>
<!DOCTYPE svg PUBLIC "-//W3C//DTD SVG 20010904//EN" "http://www.w3.org/TR/2001/REC-SVG-20010904/DTD/svg10.dtd">
<svg version="1.0" xmlns="http://www.w3.org/2000/svg" width="700px" height="230px" viewBox="0 0 700 230" preserveAspectRatio="xMidYMid meet">
 <g fill="#0045ad">
  <path d="M163.7 196.6 c-7.4 -2 -12.7 -6.3 -16.2 -13.1 -2.9 -5.7 -3 -6.3 -2.9 -18.4 0.1 -10.4 0.8 -15.6 3.8 -30.1 4.2 -19.9 6.6 -35.6 6.6 -44.7 0 -3.5 0.3 -6.3 0.8 -6.3 0.4 0 4.9 -0.7 10 -1.5 8 -1.3 9.7 -1.3 12.6 -0.1 5.4 2.2 7.1 6.5 7 17.1 0 7.5 -1 12.9 -5.9 32.5 -6.3 25.6 -7.2 33.7 -4.2 38.3 3.6 5.5 13.6 2.8 19 -5 4.2 -6.1 7.7 -14.7 8.8 -21.5 0.5 -3.5 3.4 -18.7 6.4 -33.8 5.3 -27 7.7 -42.9 9 -58.2 0.5 -6 1 -7.8 2.3 -8.2 2.6 -0.8 16.4 -2.1 18.7 -1.8 6.7 0.8 9.8 6.2 9.7 17 -0.1 9.6 -1.1 15.8 -8.3 49.6 -9.2 43.1 -10.7 57.8 -6.4 62.6 2.4 2.7 7.4 2.6 11.6 -0.3 6.9 -4.6 14.9 -20.1 14.9 -28.9 0 -17.8 9.9 -40.7 22.2 -51.3 20.2 -17.2 52.1 -15.2 61.2 3.9 5 10.7 3.5 26.9 -3.7 38.3 -3.9 6.2 -11.4 12.9 -18.7 16.7 -7 3.7 -20 7.6 -25.2 7.6 -1.5 0 -2.8 0.5 -2.8 1 0 2.3 8.4 9.9 13.3 12.1 4.5 2.1 6.7 2.4 15.7 2.3 12.6 -0.1 19.3 -2.3 26.4 -8.5 5.7 -5 12.1 -17.7 13.1 -25.9 0.4 -3 2.7 -15.2 5.2 -27 6.5 -31.3 9.3 -47.3 10 -57.8 0.7 -10.4 -0.2 -9.6 11.2 -11.1 15.8 -2 20.8 3.9 19 22.5 -0.5 4.5 -1.5 11.5 -2.4 15.5 -3.2 14.9 -3.3 14 0.9 9.2 5.4 -6.2 14.6 -10.4 22.7 -10.5 21.6 -0.1 32.6 19.4 29.8 52.6 -3.4 40 -25.6 65.6 -57 65.8 -14.4 0 -24.7 -4.4 -32.1 -14 l-3.1 -4.1 -4 3.4 c-10.9 9.3 -27.5 14.6 -46.1 14.6 -18.6 0 -30.9 -3.9 -41.1 -13.3 l-5.6 -5.1 -5.7 5.6 c-9.7 9.2 -18.9 12.9 -32.4 12.9 -10.5 0 -17 -2.3 -22.3 -7.7 l-4.1 -4.2 -2.9 2.4 c-10.6 8.6 -26.3 12.2 -38.8 8.9z m247.3 -29.8 c8.5 -4.3 14.8 -18.8 15.7 -36.3 0.9 -16.2 -2.5 -24 -10.5 -24 -11.3 0 -21.2 19.8 -21.2 42.3 0 7.6 0.4 10.5 2 13.7 3.2 6.7 7 7.8 14 4.3z m-106.3 -31 c7.8 -3.7 14.3 -11.8 15.8 -19.9 0.8 -4.4 -1.4 -10.3 -4.5 -11.9 -3.1 -1.7 -8.2 -0.4 -11.2 2.8 -5.2 5.5 -10.8 20.6 -10.8 29.1 0 3.2 0.1 3.2 3.3 2.6 1.7 -0.4 5.1 -1.6 7.4 -2.7z"/>
  <path d="M500.2 197 c-7.5 -1.1 -17.4 -6.2 -21.8 -11.3 -7.8 -9 -10.9 -20 -10.8 -38.2 0.2 -15.3 2.3 -24.7 8.3 -37 10.8 -21.8 32.6 -34.5 54.1 -31.5 24.1 3.4 36.2 24.7 32.8 57.9 -2.3 23.1 -13.2 43.4 -28.5 53.1 -8.8 5.6 -23.1 8.5 -34.1 7z m15.5 -30.1 c8.8 -4.3 15.5 -20.9 15.7 -38.9 0.1 -11.7 -2 -18.2 -6.7 -20.6 -11.7 -6.1 -24.7 15.5 -24.7 41.2 0 10.8 1.8 16.7 5.9 18.9 3.5 1.9 4.8 1.8 9.8 -0.6z"/>
  <path d="M606.1 196.9 c-17.4 -2.2 -29.3 -14.9 -32.2 -34.3 -1.6 -10.6 -0.1 -23.8 5.7 -51.6 6.5 -30.9 9.4 -47.2 10.1 -57.8 0.7 -10.4 -0.2 -9.6 11.2 -11.1 15.8 -2 20.8 3.9 19 22.5 -0.5 4.5 -1.5 11.5 -2.4 15.5 -3.2 14.9 -3.3 14 0.9 9.2 5.4 -6.2 14.6 -10.4 22.7 -10.5 21.6 -0.1 32.6 19.4 29.8 52.6 -3.6 43.4 -29.8 69.8 -64.8 65.5z m16.9 -30.1 c8.5 -4.3 14.8 -18.8 15.7 -36.3 0.9 -16.2 -2.5 -24 -10.5 -24 -11.3 0 -21.2 19.8 -21.2 42.3 0 7.6 0.4 10.5 2 13.7 3.2 6.7 7 7.8 14 4.3z"/>
  <path d="M58.3 194 c-5.9 -1.2 -8.9 -3.5 -11.4 -8.7 -2.9 -6 -2.9 -21.4 0 -36.3 1.2 -5.8 2.1 -10.6 2.1 -10.7 0 -0.2 -2.5 -0.3 -5.6 -0.3 -4.8 0 -5.9 -0.4 -8.5 -2.9 -2.4 -2.5 -2.9 -3.7 -2.9 -8 0 -2.8 0.7 -6.9 1.6 -9.1 l1.6 -4 9.4 0 c8.9 0 9.4 -0.1 9.9 -2.2 2.6 -11.4 5.5 -25.2 6.1 -29.5 l0.6 -5.2 -8.2 0.1 c-7.1 0 -8.9 -0.4 -13.8 -2.8 -7.1 -3.7 -10.2 -9 -10.2 -17.3 0 -5.8 1.5 -12.7 2.9 -13.5 0.5 -0.3 3.9 0.1 7.7 0.9 10.8 2.3 30.4 1.9 51.6 -1.1 19.8 -2.7 35.9 -3.3 42.4 -1.5 12.1 3.3 16.5 11.9 13.3 26.1 -1.5 7.1 -1.4 7 -5.1 5.9 -6.7 -1.9 -23.3 -3.1 -34.4 -2.4 l-11.2 0.7 -0.7 5.6 c-0.4 3.2 -2 12.1 -3.6 19.8 -1.6 7.8 -2.9 14.5 -2.9 14.8 0 0.4 5.5 0.6 12.3 0.5 13.1 -0.2 16.9 0.7 18.8 4.2 1.4 2.8 0.7 11.2 -1.4 16.2 l-1.6 3.8 -13.4 -0.7 c-7.4 -0.4 -15 -0.4 -16.9 0 -4 0.7 -3.4 -1.2 -6.9 21 -1.1 7 -2.1 17.9 -2.2 24.1 l-0.2 11.4 -5 0.6 c-2.7 0.3 -6.1 0.8 -7.5 1 -1.4 0.1 -4.4 -0.1 -6.7 -0.5z"/>
  <path d="M166.3 66.9 c-8.6 -2.5 -11.1 -13.6 -5.3 -23.6 5.2 -9.1 16.2 -13.4 25.4 -9.9 7.4 2.8 9.8 8.9 7.1 18.1 -2.1 7.3 -7.5 12.8 -14.6 14.9 -5.8 1.8 -7.9 1.8 -12.6 0.5z"/>
 </g>
</svg>